<svg xmlns="http://www.w3.org/2000/svg" viewBox="0 0 164.28 164.27">
  <defs>
    <style>
      .cls-1{fill:#2ce198}
    </style>
  </defs>
  <g id="Layer_2" data-name="Layer 2">
    <g id="Layer_7" data-name="Layer 7">
      <path d="M145.74 93h15.81c-.26 1.91-.59 3.87-1 5.86-.09.41-.17.81-.27 1.21h-14.54zM59.07 73.91v6h61.64V87H59.07v6h61.64v7.08H59.07v6h61.48a12 12 0 0 1-11.84 10H56.48a12 12 0 0 1-12-12V62.94a12 12 0 0 1 12-12h52.23a12.05 12.05 0 0 1 11.81 9.9H59.07v6h61.64v7.07zM162.28 82.13c0 1.34 0 2.58-.1 3.81 0 .34 0 .69-.06 1h-16.38v-7.03h16.51c.02.7.03 1.43.03 2.22z"/>
      <path class="cls-1" d="M84.82 36.48l-.8.7-.6-.7h1.4z"/>
      <path class="cls-1" d="M84.82 36.48l-.8.7-.6-.7h1.4z"/>
      <path class="cls-1" d="M83.42 36.48l.6.7.8-.7z"/>
      <path class="cls-1" d="M164.21 78.88c-.07-2-.22-4.07-.46-6.07-.27-2.46-.65-4.87-1.13-7.17-.4-2-.9-4-1.48-6.07a82.14 82.14 0 1 0-.19 45.77 78.1 78.1 0 0 0 1.54-6.08c.51-2.44.91-4.86 1.18-7.16.26-2 .43-4.08.51-6.07.07-1.25.1-2.53.1-3.9 0-1.19-.02-2.25-.07-3.25zm-82.07 83.39a80.13 80.13 0 1 1 77.08-102.15c.56 2 1 4 1.44 5.92.46 2.24.84 4.59 1.11 7l.09.88h-16.12v-7.08h-25v7.07H59.07v6h61.64V87H59.07v6h61.64v7.08H59.07v6h61.48a12 12 0 0 1-11.84 10H56.48a12 12 0 0 1-12-12V62.94a12 12 0 0 1 12-12h52.23a12.05 12.05 0 0 1 11.81 9.9h25.22V48.48a12 12 0 0 0-12-12H84.82l-.8.7-.6-.7H30.69a12 12 0 0 0-12 12v68.09a12 12 0 0 0 12 12h103a12 12 0 0 0 12-12v-10.51h12.9a80.59 80.59 0 0 1-76.45 56.21zm78.39-63.43c-.09.41-.17.81-.27 1.22h-14.52V93h15.81c-.26 1.89-.55 3.85-1.02 5.84zm1.65-12.9c0 .34 0 .69-.06 1h-16.38v-7.03h16.51v2.22c.03 1.34 0 2.58-.07 3.81z"/>
      <path class="cls-1" d="M59.07 73.91v6h61.64V87H59.07v6h61.64v7.08H59.07v6h61.48a12 12 0 0 1-11.84 10H56.48a12 12 0 0 1-12-12V62.94a12 12 0 0 1 12-12h52.23a12.05 12.05 0 0 1 11.81 9.9H59.07v6h61.64v7.07z"/>
      <path d="M59.07 73.91v6h61.64V87H59.07v6h61.64v7.08H59.07v6h61.48a12 12 0 0 1-11.84 10H56.48a12 12 0 0 1-12-12V62.94a12 12 0 0 1 12-12h52.23a12.05 12.05 0 0 1 11.81 9.9H59.07v6h61.64v7.07z" fill="#bae0de"/>
      <path d="M145.74 106.06h12.9a80.12 80.12 0 1 1 .58-45.94c.56 2 1 4 1.44 5.92.46 2.24.84 4.59 1.11 7l.09.88h-16.12v-7.08H59.07v-6h86.67V48.48a12 12 0 0 0-12-12h-103a12 12 0 0 0-12 12v68.09a12 12 0 0 0 12 12h103a12 12 0 0 0 12-12z"/>
    </g>
  </g>
</svg>
