<svg xmlns="http://www.w3.org/2000/svg" viewBox="0 0 163.38 183.46">
  <defs>
    <style>
      .cls-3{fill:#bf6c10}.cls-4{fill:#ff9015}.cls-6{fill:#f8fcfc}.cls-7{fill:#ffd13f}.cls-8{fill:#e09600}.cls-9{fill:#ffd3a1}.cls-14{fill:#fff6d9}
    </style>
    <linearGradient id="linear-gradient" x1="78.92" y1="93.87" x2="96.03" y2="93.87" gradientUnits="userSpaceOnUse">
      <stop offset="0" stop-color="#fff"/>
      <stop offset="1"/>
    </linearGradient>
  </defs>
  <g style="isolation:isolate">
    <g id="Layer_2" data-name="Layer 2">
      <g id="background">
        <path d="M160.88 75.26c-13.62 73.68-32.38 92.26-69.39 101-55.06 13.09-75.49-6.78-84.16-60.49C-4.54 42.41 12.68 6.48 59.57 5.47 130.91 3.93 171.83 16 160.88 75.26z" fill="#212121"/>
        <path class="cls-3" d="M161.37 75.36c-2.13 11.2-4.23 22.42-6.81 33.58s-5.66 22.33-10.7 33a75.58 75.58 0 0 1-9.43 15.18 59.59 59.59 0 0 1-13.5 12.25 71.59 71.59 0 0 1-16.33 7.8 117.91 117.91 0 0 1-17.11 4.29A129.52 129.52 0 0 1 70 183.4a80.61 80.61 0 0 1-17.73-1.2 50.26 50.26 0 0 1-16.72-6.34 46.12 46.12 0 0 1-7.1-5.43 50.71 50.71 0 0 1-5.84-6.66 71.22 71.22 0 0 1-8.37-15.31A134 134 0 0 1 8.85 132a327.4 327.4 0 0 1-6.62-33.83C1.42 92.46.75 86.72.39 80.93.28 79.49.19 78 .14 76.58S0 73.68 0 72.22v-4.38l.15-4.39a103.34 103.34 0 0 1 2.33-17.62 71.07 71.07 0 0 1 6.1-17.15A50.84 50.84 0 0 1 20 13.82a47 47 0 0 1 3.71-3c.62-.5 1.31-.89 2-1.33s1.32-.89 2-1.27a54.17 54.17 0 0 1 8.55-4 67.26 67.26 0 0 1 18-3.84c1.51-.14 3-.17 4.53-.25S61.72.07 63.17 0h8.64c5.77.1 11.55.2 17.34.63s11.59.9 17.38 1.82a125.4 125.4 0 0 1 17.23 3.85 77.45 77.45 0 0 1 16.46 7A49.67 49.67 0 0 1 154 25c.48.58.89 1.22 1.33 1.83s.9 1.21 1.26 1.87l1.12 2c.18.33.38.65.55 1l.47 1 .94 2c.31.67.52 1.39.78 2.08s.52 1.39.73 2.09l.56 2.14a62.82 62.82 0 0 1 1.62 17.28 118.13 118.13 0 0 1-1.99 17.07zm-1-.18a91.05 91.05 0 0 0 1.48-16.9 50.9 50.9 0 0 0-2.75-16.48l-.71-1.94c-.26-.64-.58-1.25-.86-1.87s-.56-1.25-.9-1.84l-1-1.76-.53-.87c-.19-.28-.4-.55-.6-.82l-1.21-1.63c-.39-.55-.89-1-1.33-1.53s-.88-1-1.36-1.48a44 44 0 0 0-13.37-8.79 77.84 77.84 0 0 0-15.54-4.76 161.91 161.91 0 0 0-16.34-2.43 319.16 319.16 0 0 0-33.51-1.37c-2.82 0-5.63 0-8.45.09-1.4 0-2.85 0-4.2.09s-2.68.1-4 .2a62.19 62.19 0 0 0-15.35 3A40.44 40.44 0 0 0 16.9 33.17c-5.1 9.13-7.51 20-8.74 30.9a198 198 0 0 0-.49 33.53l.33 4.23.38 4.22c.22 2.82.6 5.63.93 8.44s.74 5.61 1.22 8.39c.23 1.39.49 2.78.78 4.16s.54 2.77.87 4.14a104.3 104.3 0 0 0 4.91 16.11l.79 1.95.87 1.9c.56 1.28 1.25 2.49 1.9 3.73s1.41 2.4 2.13 3.58l1.19 1.7.59.85.65.81 1.29 1.61 1.4 1.51.7.75.75.7 1.5 1.39c1.09.82 2.11 1.73 3.27 2.44.57.37 1.12.76 1.7 1.11l1.78 1a43.13 43.13 0 0 0 15.5 4.45 75.21 75.21 0 0 0 16.37-.4 145.35 145.35 0 0 0 16.32-3c10.86-2.59 21.37-5.82 30.37-11.39s16.34-13.57 22.11-23a124.46 124.46 0 0 0 7.73-14.9l1.67-3.88 1.57-3.94c1-2.65 2-5.32 2.83-8 1.83-5.37 3.36-10.86 4.72-16.38s2.53-11.12 3.6-16.71z"/>
      </g>
      <g id="Fills">
        <path class="cls-4" d="M72.24 56.16a11.43 11.43 0 0 0 1.88-.16z"/>
        <path class="cls-4" d="M143.26 66.67c-.12-3.08-.65-6.4-2.85-8.54-2.36-2.3-6-2.62-9.23-2.79-14.88-.75-31.22-.68-47.23 0l-9.83.66a11.43 11.43 0 0 1-1.88.12l-17 1.14-1.24.12h-.49c-10.07.53-20.47 1.85-30.06 4.94a7.85 7.85 0 0 0-4 2.31c-1 1.36-1.11 3.22-1.11 4.94q-.2 16.43 1.15 32.79.78 9.48 2 18.92c1 7.6 3.15 15.35 4.61 22.9 1.11 5.72 2.6 12.55 7.5 16.3 5.19 4 14.59 3.33 20.84 3.53 4.13.12 31 .37 48.48-.38 1.27 0 8.83-.33 14.46-.76a28.38 28.38 0 0 0 6.14-.82c1.73-.93 2.43-3.32 3.32-4.86 5.71-23.66 10.69-47.51 14.64-71.53 1.06-6.29 2.03-12.66 1.78-18.99zm-24.79 62.12c-2.09 7.32-3 7-5 17l-.91-2.81-.09.43-1.74-5.34-3.26 12.72a17.6 17.6 0 0 1-3.67-5.79c-1.17 3.51-2.33 7.75-3.33 11.75L93.35 151l-.79 7.21a28.18 28.18 0 0 0-6.85-5.64c-.54 2.28.14 5.37-1.24 7.26a28.33 28.33 0 0 0-7.25-7.11c0 .29.83 7.11.31 6.92-.33-.12-5-3.74-8.91-6.81l-.08-.06c-1.82-1.44-3.45-2.74-4.36-3.52l-1.55-.07 1.24.07c-5.82.21-13.11.71-18.09-2.94a18.85 18.85 0 0 1-3.44-3.3 33.35 33.35 0 0 1-4.2-6.88 31.49 31.49 0 0 1-1.68-4.14 19.38 19.38 0 0 1-.54-2.25 6.72 6.72 0 0 1-.29-1.66c0-.47.17-.42.3-.18-.42-1.48-.78-3-1.12-4.44-.7-3.12-1.23-6.27-1.63-9.44s-.69-6.28-.94-9.47a90.46 90.46 0 0 1-.3-9.63 21.7 21.7 0 0 1 .59-5.06A11.32 11.32 0 0 1 35.14 85a12.93 12.93 0 0 1 4.53-3 27.1 27.1 0 0 1 4.84-1.4q9.32-1.89 18.72-3.31c6.27-.92 12.56-1.77 18.88-2.2 3.16-.23 6.32-.43 9.49-.57l4.72-.19c1.56-.07 3.14-.21 4.72-.27a37.9 37.9 0 0 1 9.61.57 11.9 11.9 0 0 1 4.47 1.94 8.13 8.13 0 0 1 2.8 3.9.1.1 0 0 1-.06.13.08.08 0 0 1 0 .05q.16.4.3.84a2 2 0 0 1 .07.23c.07.22.14.44.19.67s.07.25.1.37c.07.28.14.57.2.85l.06.28c0 .25.1.5.14.75.13.76.24 1.5.34 2.21s.14 1.1.21 1.6c.59 4.35 1.57 11.45 1.89 16.81-2.32 4.71-4.17 8.16-5.63 11.3q0 .59-.09 1.2c1.47-3.2 3.35-6.69 5.72-11.5l.08-.16c.73-1.48 1.51-3.09 2.33-4.85a91.35 91.35 0 0 1-1.35 7.27c.73-1.48 1.51-3.09 2.33-4.85-1.28 9.12-4.28 18.12-6.28 25.12z"/>
        <path d="M121.36 105.22c-2.32 4.71-4.17 8.16-5.63 11.3-.46 1-.87 1.92-1.25 2.87a86.92 86.92 0 0 1 1-12.79c.27-2 .57-4.23.84-6.87 0-.43.09-.87.13-1.32-3.48 8.45-8 19.26-9 25.88s0 .07 0 .11c-.89-1.91-2-8.67-2.6-13.81-.25-2.18-.4-4.07-.4-5.18-3.33 8.88-2 18-3 25-1.55-3.87-5-14.63-6.5-18.5a32.73 32.73 0 0 0-1 8.4v.1a78.47 78.47 0 0 0 1.26 12.72L87.51 122v1.06l.68 16.06c-2.69-3.24-7.53-11-10.72-13.63l.21 1.19-.21-.19 2.8 15.87c-5.67-3.64-9.59-9.59-14.8-13.87.14.45.29.91.44 1.38-.15-.14-.29-.26-.44-.38 1.39 4.56 4 10 5.58 14.69-10.58-7.69-10.69-7.77-19.39-13.78.26.51.53 1 .83 1.57l-.83-.57c.44.88.94 1.79 1.49 2.72l-.49-.34a64.76 64.76 0 0 0 10.84 14.83c.12.12.35.33.68.6l-1.55-.07h-.88c-.69 0-1.38-.07-2.06-.12h-.28l-1.5-.1-2.2-.17-1.15-.12c-.68-.07-1.29-.14-1.81-.22a10.72 10.72 0 0 1-2.18-.55 9.89 9.89 0 0 1-1-.45.1.1 0 0 0 0-.14 21.43 21.43 0 0 1-6.6-6.6 40.91 40.91 0 0 1-4.35-8.35 55.59 55.59 0 0 1-2.47-9.1 98.21 98.21 0 0 1-1.37-9.34c-.51-6.28-1.21-12.57-1-18.86a20.56 20.56 0 0 1 .58-4.65 9.35 9.35 0 0 1 2.19-4 11 11 0 0 1 3.87-2.51 26.8 26.8 0 0 1 4.52-1.27 351.34 351.34 0 0 1 37.35-5.93c3.13-.31 6.27-.59 9.42-.81l4.72-.31 4.71-.4a36.13 36.13 0 0 1 9.41.17 11.35 11.35 0 0 1 4.33 1.68 7.81 7.81 0 0 1 2.88 3.59.12.12 0 0 0 .1.07.08.08 0 0 1 0 .05q.16.4.3.84a2 2 0 0 1 .07.23c.07.22.14.44.19.67s.07.25.1.37c.07.28.14.57.2.85l.06.28c0 .25.1.5.14.75.13.76.24 1.5.34 2.21s.14 1.1.21 1.6c.59 4.26 1.53 11.36 1.89 16.72z" fill="#bae0de"/>
        <path class="cls-6" d="M123.77 101.21a91.35 91.35 0 0 1-1.35 7.27c-1.48 6.58-3.48 12.79-5 17.93-2.06 7.21-3 7-4.91 16.57l-1.73-5.3-.1.39-.9-2.77-3.36 13.11a17.6 17.6 0 0 1-3.67-5.75c-1.17 3.51-2.33 7.75-3.33 11.75l-7.12-5.83-.79 7.21a28.18 28.18 0 0 0-6.85-5.64c-.54 2.28.14 5.37-1.24 7.26a28.33 28.33 0 0 0-7.25-7.11c0 .29.83 7.11.31 6.92-.33-.12-5-3.74-8.91-6.81l-.08-.06-1.33-1c-1.88-1.5-3.35-2.7-3.71-3.07a66.81 66.81 0 0 1-9.3-12.28c-.55-.93-1-1.84-1.49-2.72l.83.57c8 5.53 8.34 5.78 19 13.52-.13-.43-.27-.86-.42-1.31-1.6-4.7-4.19-10.13-5.58-14.69.15.12.29.24.44.38 5 4.29 8.94 10.09 14.55 13.62l-.2-1.13-2.8-15.87.21.19c3.21 2.83 7.93 10.35 10.55 13.49v-1L87.55 123l7.92 11.38c-.06-.43-.13-.85-.19-1.27a78.47 78.47 0 0 1-1.28-12.7v-.1a33.16 33.16 0 0 1 1-7.4c.27.67.6 1.55 1 2.57 1.71 4.83 4.26 12.73 5.54 15.93v-.24c.94-7-.32-16 3-24.76 0 1 .12 2.57.32 4.43.55 5.21 1.74 12.56 2.68 14.57 0-.22.07-.45.11-.68 1.1-6.57 5.39-16.83 8.75-25-.27 2.64-.57 4.84-.84 6.87a86.92 86.92 0 0 0-1 12.79v1c.36-.89.74-1.78 1.17-2.69 1.47-3.2 3.35-6.69 5.72-11.5l.08-.16c.64-1.46 1.42-3.04 2.24-4.83z"/>
        <path class="cls-7" d="M68.43 50.61C73.53 45.73 80.52 43.46 87 41c16.51-6.15 33.35-10.13 50.67-13.23a22.78 22.78 0 0 1 3.07-4.9c5.7-4.27 15.4-2.52 18.69 3.91 5.29 10.33-10.29 15.26-17.46 10.73-3.45-2.18-6.68-8.71-3-12.09"/>
        <path class="cls-4" d="M87.55 123v-1.06l7.77 11.17c.06.42.13.84.19 1.27zM88.23 140.09c-2.62-3.14-7.34-10.66-10.55-13.49l-.21-1.19c3.19 2.67 8 10.39 10.72 13.63zM80.47 143.41c-5.61-3.53-9.5-9.33-14.55-13.62-.15-.47-.3-.93-.44-1.38 5.21 4.28 9.13 10.23 14.8 13.87zM71.47 145.41c-10.64-7.74-11-8-19-13.52-.3-.53-.57-1.06-.83-1.57 8.7 6 8.81 6.09 19.39 13.78.17.45.31.9.44 1.31zM116.47 98.41c0 .45-.09.89-.13 1.32-3.36 8.16-7.65 18.42-8.75 25 0 .23-.08.46-.11.68-.94-2-2.13-9.36-2.68-14.57-.2-1.86-.32-3.45-.32-4.43-3.29 8.78-2 17.8-3 24.76v.24c-1.28-3.2-3.83-11.1-5.54-15.93-.36-1-.69-1.9-1-2.57a33.16 33.16 0 0 0-1 7.4 32.73 32.73 0 0 1 1-8.4c1.55 3.87 5 14.63 6.5 18.5 1-7-.33-16.12 3-25 0 1.11.15 3 .4 5.18.59 5.14 1.71 11.9 2.6 13.81v-.11c.99-6.62 5.56-17.43 9.03-25.88z"/>
        <path class="cls-8" d="M73.36 49c5.21-2.22 10.44-4.4 15.7-6.48s10.59-4 15.92-5.95l8-2.81c2.7-.88 5.42-1.65 8.16-2.39s5.48-1.45 8.23-2.12l4.14-1a38.55 38.55 0 0 1 4.2-.77v.2c-2.7.74-5.41 1.65-8.08 2.56l-8.06 2.61c-2.67.9-5.37 1.71-8 2.66l-7.94 2.91-8 2.79-8 2.74c-2.67.92-5.36 1.81-8 2.7s-5.4 1.75-8.15 2.5z"/>
        <path class="cls-9" d="M58.21 60.26c-1.89.22-19.64 2.22-30.06 6.67a3.71 3.71 0 0 0-1.44 1c-1.14 1.15-1.39 2.89-1.55 4.49-.2 1.9-3.18 11.3-3.33 12.1-.41-.46-.27-1.39-.3-2 0-.79-.05-1.57-.09-2.36v-.3a56.33 56.33 0 0 1 .11-8.83v-.35a5.34 5.34 0 0 1 1.26-3.25 4.72 4.72 0 0 1 1.26-.84 70.62 70.62 0 0 1 9.18-3c6.47-1.78 23.45-3.28 24.96-3.33zM60.81 74.94H61c-2.72.21-5.35.6-8 1A83.46 83.46 0 0 0 36 80a11.15 11.15 0 0 0-5.66 4.19 16.25 16.25 0 0 0-2.15 7.47 41.32 41.32 0 0 0-.14 4.37c-.33-.15-.85-5.74-.73-7.51a19.14 19.14 0 0 1 .8-5c.79-2.29 2.89-4 5-5.11 3.79-2 8.35-3 12.56-3.74 4.43-.77 7.9-.18 12.4-.16.3.07 2.42.43 2.73.43zM63.87 149.21c-5.71 1.52-14.72 2.42-19.7-1.23a18.85 18.85 0 0 1-3.44-3.3 33.35 33.35 0 0 1-4.2-6.88 31.49 31.49 0 0 1-1.68-4.14 19.38 19.38 0 0 1-.54-2.25c-.1-.54-.59-2.84 1.32-3.37.45-.13.17-.42.3-.18a8.54 8.54 0 0 1 .46 1.21c.6 1.77 1.3 3.53 2.06 5.24.4.9.83 1.79 1.29 2.66a40.31 40.31 0 0 0 2.62 4 30.13 30.13 0 0 0 3.16 3.62 18.18 18.18 0 0 0 2.48 2 13.32 13.32 0 0 0 1.42.81.11.11 0 0 0 .08 0 9.89 9.89 0 0 0 1 .45 10.72 10.72 0 0 0 2.18.55c.52.08 1.13.15 1.81.22l1.15.12 2.2.17 1.5.1h.28c.68 0 1.37.09 2.06.12h.88zM118.3 72.8a14.09 14.09 0 0 0-2.11-1.1c-1.64-.76-5.75-.63-7.72-.5a21.38 21.38 0 0 1 3.22.45c.76.21 1.52.43 2.27.69A10.86 10.86 0 0 1 117.2 74a7.34 7.34 0 0 1 1.52 1.66 23.13 23.13 0 0 1 1.17 2.63 67.47 67.47 0 0 1 1.6 7.12c.64 4.83 1.3 11.15 1.7 16.29.65-3.23.05-17.3-.56-20.17-.26-1.21-1.23-4.46-1.4-4.89a8.07 8.07 0 0 0-2.93-3.84zM26.06 125.68c1.71 7.92 4.75 16.18 5.8 20.84-.91-4.72-1.78-13.27-3.38-21.12q-.72-3.52-1.42-7l-1.48-7.41c-.45-2.24-.89-4.48-1.33-6.71C24 103 23 99.53 22.86 98.51s-1.25 2.49-.74 5.63l.08.49q.6 3.67 1.24 7.33.7 4 1.47 8.09c.37 1.88.75 3.76 1.15 5.63zM135.51 106.85c-1.71 7.92-4.75 16.18-5.8 20.84.91-4.72 1.78-13.27 3.38-21.12q.72-3.52 1.42-7l1.48-7.41c.45-2.24.89-4.48 1.33-6.71.24-1.22 1.26-4.7 1.38-5.72s1.25 2.49.74 5.63l-.08.49q-.6 3.67-1.24 7.33-.7 4-1.47 8.09c-.36 1.83-.74 3.73-1.14 5.58zM137.84 58.47a5.12 5.12 0 0 1 3.24 3.35 21.3 21.3 0 0 1 .31 5.2 23.07 23.07 0 0 1-.75 6.32 2.5 2.5 0 0 0-.19-1.1c-.48-1.9-1.05-3.8-1.57-5.69a18 18 0 0 0-1.4-3.93 8.31 8.31 0 0 0-5.14-3.8c-1.45-.44-3-.63-4.43-1s-2.78-.8-4.2-1.09a19.9 19.9 0 0 1 2.72.08c1.57.08 3.14.17 4.71.35a24.48 24.48 0 0 1 6.7 1.31z"/>
        <path class="cls-3" d="M142.72 77.43a284.89 284.89 0 0 1-6 35.09v.09c-1.25 5.77-2.51 11.52-3.64 17.53-.07.37-.14.74-.2 1.11a.24.24 0 0 0 0 .08l-.06.27-5 22.06v-.31c-.47 2.17-.86 4-.87 4-.25 1.09-.52 2.17-.78 3.26a5.07 5.07 0 0 1-.89 2.1 1.88 1.88 0 0 1-.35.34 4.16 4.16 0 0 1-2.31.6c-16.09.89-62.76 1.06-64.2 1.06A145.57 145.57 0 0 1 42 164c-3.41-.39-8.36-.79-10.75-3s-3.25-4.81-3.9-7.62c-.4-1.33-.71-2.71-1-4-.34-1.6-.66-3.21-1-4.82-.16-.81-.32-1.63-.47-2.45-1.08-5.65-3-16.44-3.88-24.13-1.17-9.6-3.6-34.63-4.05-44.29-.07-1.45-.13-2.9-.17-4.34a10.89 10.89 0 0 1 .2-2.55 6.9 6.9 0 0 1 1-2.5c2.16-3.3 6.79-3.9 10.32-4.63 10.83-2.24 21.91-2.48 32.92-3l9.33-.45 4-.17-.36.08a11.43 11.43 0 0 1-1.88.12h-1.09c-1.17.07-1.83.67-3 .75-2.36.15-33.87 3.46-43.46 6.55a7.85 7.85 0 0 0-4 2.31c-1 1.36-1.11 3.22-1.11 4.94-.06 10.93.71 21 1.61 31.85 0 0 4.23 25.94 5.54 30.36 1.22 4.12 2.62 8.19 3.89 12.31 1.13 3.63 1.67 7.42 4.71 10s7.41 3.3 11.4 3.9c3.69.55 7.4 1.07 11.12 1.37.75.06 1.51.11 2.26.14 4.13.12 24.48.26 41.94-.49 1.27 0 8.81-.67 14.46-.76 3.64-.05 5.32-.68 6.43-4.31.51-1.66 7.39-28.51 8.42-31.68-.1-.04 9.86-46.16 11.29-46.06z"/>
        <path class="cls-3" d="M124.77 103.59c-1.3 9.2-4.3 18.2-6.3 25.2-2.09 7.32-3 7-5 17l-.91-2.81c1.94-9.56 2.85-9.36 4.91-16.57 1.47-5.14 3.47-11.35 5-17.93.7-1.48 1.48-3.13 2.3-4.89zM110.73 138.07l-3.26 12.72a17.6 17.6 0 0 1-3.67-5.79c-1.17 3.51-2.33 7.75-3.33 11.75L93.35 151l-.79 7.21a28.18 28.18 0 0 0-6.85-5.64c-.54 2.28.14 5.37-1.24 7.26a28.33 28.33 0 0 0-7.25-7.11c0 .29.83 7.11.31 6.92-.33-.12-5-3.74-8.91-6.81l-.08-.06c-1.82-1.44-3.45-2.74-4.36-3.52-.33-.27-.56-.48-.68-.6a64.76 64.76 0 0 1-10.84-14.95l.49.34a66.81 66.81 0 0 0 9.35 12.19c.36.37 1.83 1.57 3.71 3.07l1.33 1 .08.06c3.88 3.07 8.58 6.69 8.91 6.81.52.19-.29-6.63-.31-6.92a28.33 28.33 0 0 1 7.25 7.11c1.38-1.89.7-5 1.24-7.26a28.18 28.18 0 0 1 6.85 5.64l.79-7.21 7.12 5.83c1-4 2.16-8.24 3.33-11.75a17.6 17.6 0 0 0 3.67 5.75l3.36-13.11zM117.47 101.79c-.62 6.34-1.36 10.2-1.74 14.73q0 .59-.09 1.2c-.43.91-.81 1.8-1.17 2.69v-1a100.78 100.78 0 0 1 1.2-13.25c.62-1.52 1.23-2.98 1.8-4.37zM107.58 124.73c0 .23-.08.46-.11.68-.94-2-2.13-9.36-2.68-14.57a2.24 2.24 0 0 1 .08-.24q.25-.9.6-1.8a103.76 103.76 0 0 0 2 15.5z"/>
        <path class="cls-3" d="M117.92 80.42s0 .11-.08.14a.12.12 0 0 1-.1-.07 7.81 7.81 0 0 0-2.88-3.59 11.35 11.35 0 0 0-4.33-1.68 36.13 36.13 0 0 0-9.41-.17l-4.71.4-4.72.31c-3.15.22-6.29.5-9.42.81-11.86 1.21-23.51 3.29-35.21 5.51-1.55.29-3.11.56-4.64 1a12 12 0 0 0-6.61 4.08c-2.45 3.37-2.17 8.18-2.08 12.13.11 4.85.53 9.71 1 14.53.31 3.13.76 6.25 1.37 9.34a55.59 55.59 0 0 0 2.47 9.1 40.91 40.91 0 0 0 4.35 8.35 21.43 21.43 0 0 0 6.6 6.6.1.1 0 0 1 0 .14c-.47.23-2.2-.6-2.65-.78-3.73-1.5-6.25-4.88-8.35-8.16-6.1-9.56-7.63-21.49-8.55-32.56q-.1-1.2-.18-2.4a74.07 74.07 0 0 1-.09-10.36c.23-3.31 1-6.66 3.58-9a25.08 25.08 0 0 1 10-5.09c3.38-1 6.82-1.27 10.25-2 3.25-.66 6.55-1.22 9.85-1.71 6.27-.92 12.56-1.77 18.88-2.2 3.16-.23 6.32-.43 9.49-.57l4.72-.19c1.56-.07 3.14-.21 4.72-.27a37.9 37.9 0 0 1 9.61.57 11.9 11.9 0 0 1 4.47 1.94c1.31 1.1 2.13 4.34 2.65 5.85z"/>
        <path d="M44.11 115.69a14.7 14.7 0 0 1 4.34-4.2A28.51 28.51 0 0 1 51 110c.88-.44 1.77-.83 2.65-1.23s1.79-.71 2.68-1 1.78-.64 2.7-.9c1.8-.58 3.6-1.12 5.57-1.63l.11.16a55.43 55.43 0 0 1-10.29 5.23 45.08 45.08 0 0 0-10.2 5.26z"/>
        <path d="M48.69 112.74l-7.72-3.83 8.39 1.95-.67 1.88z"/>
        <g style="mix-blend-mode:darken">
          <path d="M94.67 99.69c3.09-6.27-2.36-17.9-11.79-14.57-5 1.78-3.65 10.91-1.67 13.82 2.51 3.69 8.38 6.49 12.29 2.44a6.65 6.65 0 0 0 1.17-1.69z"/>
          <path d="M96 100.45a13.26 13.26 0 0 0-2.91-14.51c-3.46-3.37-10.46-4.41-13.58 0-2.73 3.88-1.85 10.73.92 14.37 4 5.31 11.93 6.32 15.57.12a1.5 1.5 0 0 0-2.59-1.51c-3 5.15-9.75 2.51-11.6-2.22-1-2.55-1.66-7.08.36-9.3 2.75-3.04 7.83-.9 9.83 1.89s2.76 6.56 1.39 9.65c-.79 1.75 1.79 3.27 2.61 1.51z" fill="url(#linear-gradient)"/>
        </g>
        <circle cx="90.47" cy="95.41" r="5" fill="#fff" stroke="#000" stroke-miterlimit="10" stroke-width="2"/>
        <path d="M37.7 123.29c.4 2.67 5.56 17.13 8.41 19.34s5 4.11 8.34 4.76a20.86 20.86 0 0 0 3.74.2c1.14 0 2.36.17 3.48.09-3.32-1.41-7-1.74-10.24-3.39a16.84 16.84 0 0 1-4.36-3.58 29 29 0 0 1-3.35-4.47c-.29-.45-5.78-12.48-6.02-12.95z" fill="#8ba8a7"/>
        <path class="cls-7" d="M88.41 54.22a.28.28 0 0 1-.24.4c-11.48.5-22.8 1.28-33.44 2.29a5 5 0 0 1-.55 0h-.06c-3 0-1.17-2.74 2.16-5.3 2.91-2.23 8.44-3.7 12-4.48a21 21 0 0 1 9.55-.13c3.91 1 8.74 3.61 10.58 7.22zM59.31 49.23c-1.65-5.78-5.48-10.75-10-14.71C46 31.59 29.06 24.08 32 18.46c2.3-4.35 2.82-9.75-.89-13.51a13.53 13.53 0 0 0-8-3.64C19.06.8 15 2.06 12.82 5.78c-2.77 4.69-3.88 14 1 17.75s17.2 2 18.37-5"/>
        <path class="cls-8" d="M53.85 56.82a2.14 2.14 0 0 1-.53-.06 1.06 1.06 0 0 1-.43-.23.86.86 0 0 1-.18-.34.81.81 0 0 1 0-.39.73.73 0 0 1 0-.1l.1-.26c0-.08 1-1.36 1-1.43a2.39 2.39 0 0 1-.07.42.64.64 0 0 0 0 .18.48.48 0 0 0 .06.19 1.08 1.08 0 0 0 .45.4 2.26 2.26 0 0 0 .59.22c.25.06 6.62.77 7.66.7-1.44.13-5.29.53-7.34.68a11 11 0 0 1-1.31.02zM88.39 54.53a.67.67 0 0 1-.38.16l-.56.06-1.13.1c-.76.05-1.51.09-2.27.12l-1.7.05-3.87.11c.75 0 1.38-.26 2.13-.31s1.61-.07 2.37-.13 1.14-.12 1.9-.17a4.66 4.66 0 0 0 1.83-.24.68.68 0 0 0 .43-.94 8.4 8.4 0 0 0-1.21-1.81 14.16 14.16 0 0 0-1.18-1.05 13.22 13.22 0 0 0-1.31-.91 15.07 15.07 0 0 0-1.5-.8c-.34-.16-.84-.38-1.19-.52a47.52 47.52 0 0 0-5.5-1.66c.44 0 1.41.17 2.07.29a21.53 21.53 0 0 1 4.47 1.41 19.7 19.7 0 0 1 2.76 1.6A17.41 17.41 0 0 1 86 51.08a10.46 10.46 0 0 1 1.25 1.31A14.93 14.93 0 0 1 88.36 54a.49.49 0 0 1 .1.38.26.26 0 0 1-.07.15zM32.21 21.57a4.38 4.38 0 0 0 1.44 1.79 21.29 21.29 0 0 0 2 1.34c.7.43 1.36.85 2.06 1.23s1.42.78 2.13 1.24a15.23 15.23 0 0 1 2 1.6c.64.6 1.19 1.26 1.74 1.88 1.11 1.24 2.28 2.42 3.49 3.57s2.38 2.33 3.48 3.54 2.3 2.36 3.37 3.6S56 43.91 57 45.17a12.12 12.12 0 0 1 2.58 4.39l-.18.09a22.57 22.57 0 0 0-3.52-3.37 40.12 40.12 0 0 1-3.59-3.48 57.56 57.56 0 0 1-6.11-7.87 21.53 21.53 0 0 0-3.12-3.82 9.2 9.2 0 0 0-1.93-1.45c-.7-.38-1.44-.7-2.18-1A18 18 0 0 1 34.7 26a10.75 10.75 0 0 1-1.82-1.86 3.68 3.68 0 0 1-.86-2.5zM31.33 21a12.88 12.88 0 0 1-3.28 4.1 21.19 21.19 0 0 1-2.19 1.56 14.56 14.56 0 0 1-2.52 1.16 12.55 12.55 0 0 1-6 .63 11.09 11.09 0 0 1-7.06-4.07 11.65 11.65 0 0 1-.9-1.38 11.42 11.42 0 0 1-1.14-3A12.65 12.65 0 0 1 8 17a13.34 13.34 0 0 1 .12-1.45c.07-.49.15-1 .26-1.46a17.6 17.6 0 0 1 .86-2.52 18.26 18.26 0 0 1 1.06-2.31A27.2 27.2 0 0 1 13 5.09l.38.12a58.87 58.87 0 0 0-2.16 9.15c-.27 3 .56 6.32 2.87 8.33a8.35 8.35 0 0 0 4 2 11.78 11.78 0 0 0 4.56-.08 18.76 18.76 0 0 0 4.39-1.5 22.57 22.57 0 0 0 4-2.39zM137.51 29.34a10.85 10.85 0 0 0 4.62 6.08 13.77 13.77 0 0 0 6.67 2 13.22 13.22 0 0 0 6.77-1.25 10.49 10.49 0 0 0 4.94-5.75c1.08 2.89 0 6.58-2.59 8.9a12.77 12.77 0 0 1-9.4 3.09 13.11 13.11 0 0 1-9-4 9.86 9.86 0 0 1-2.33-4.41 7.7 7.7 0 0 1 .32-4.66zM32.07 18.39a1.42 1.42 0 0 1 .51.74 1 1 0 0 1 0 .61 1.06 1.06 0 0 1-.37.48 1.45 1.45 0 0 1-.34.19l-.23.07c-.11 0-.13.08-.37 0l.07-.07c-.1 0 0-.05 0-.09l.05-.12.09-.25.16-.52.19-.51a3 3 0 0 0 .17-.52z"/>
        <path class="cls-6" d="M42.6 99.5a1.43 1.43 0 0 1-.46.34 13.36 13.36 0 0 1-2.93.95c-.55.12-2.38.85-2.72.17a1.33 1.33 0 0 1-.09-.63A57.3 57.3 0 0 1 37 94c.3-2.29 1.12-5.78 3.2-7.08a21 21 0 0 1 3.95-1.72 20.47 20.47 0 0 1 2.85-.87 10 10 0 0 1 1.48-.26c.28 0 .74.12 1-.08-1.76 1.38-3.51 2.41-4.42 4.58-1.19 2.82-1.3 5.89-1.87 8.86a4.26 4.26 0 0 1-.59 2.07zM57.72 83.41c0 .79-1.05 1.7-2.28 2s-2.19-.06-2.16-.85 1.05-1.7 2.28-2 2.19.06 2.16.85zM52.49 140.69c-.52.67-1.92.52-3.12-.33s-1.74-2.08-1.22-2.75 1.92-.52 3.12.33 1.73 2.06 1.22 2.75zM113.18 80c1.51 2.09 4.33 9.07 3.92 9.34s-5.34-4.83-7.51-6.58-8.64-5.31-8.23-5.58 10.32.73 11.82 2.82z"/>
        <path class="cls-14" d="M86.43 52.64c.3.55.46 1.14-.16 1.19-4.4.31-10.11 1.08-14.52 1 7.35-1 7.4-1.24 11.59-1.83.37-.05-.83-1.3-.92-1.38a18.34 18.34 0 0 0-7.86-4.52c.22.11 1.83.15 2.46.26a19.61 19.61 0 0 1 3.92 1.39 30.16 30.16 0 0 1 2.75 1.49 17.43 17.43 0 0 1 2.74 2.4zM57.29 51.93c-1.19.93-2.2 1.7-1.78 2.16a3.72 3.72 0 0 0 2.45.26c1.9-2.47 9.67-6.35 9.67-6.35-1.63.23-7.39 1.62-10.34 3.93z"/>
        <ellipse class="cls-14" cx="24.89" cy="10.42" rx="4.81" ry="5.93" transform="rotate(-49.5 25.008 10.412)"/>
        <ellipse class="cls-14" cx="149.35" cy="26.14" rx="4.67" ry="3.59"/>
      </g>
    </g>
  </g>
</svg>
